<?xml version="1.0" encoding="utf-8"?>
<!-- Generator: Adobe Illustrator 27.5.0, SVG Export Plug-In . SVG Version: 6.00 Build 0)  -->
<svg version="1.1" xmlns="http://www.w3.org/2000/svg" xmlns:xlink="http://www.w3.org/1999/xlink" x="0px" y="0px"
	 viewBox="0 0 3710 3710" style="enable-background:new 0 0 3710 3710;" xml:space="preserve">
<g id="Background">
	<g>
		<g>
			<rect style="fill:#FFFFFF;" width="3710" height="3710"/>
		</g>
	</g>
</g>
<g id="Illustration">
	<g>
		<linearGradient id="SVGID_1_" gradientUnits="userSpaceOnUse" x1="3527.9163" y1="3699.2498" x2="1552.705" y2="1596.6061">
			<stop  offset="0" style="stop-color:#B37CFF"/>
			<stop  offset="1" style="stop-color:#F895E7"/>
		</linearGradient>
		<path style="opacity:0.3;fill:url(#SVGID_1_);" d="M2928.724,2861.074c-72.488,75.544-137.347,119.951-187.006,153.476
			c-484.311,326.954-1037.932,232.718-1209.098,200.508c-276.155-51.967-509.268-88.626-709.554-271.577
			c-455.11-415.719-432.974-1282.939-85.215-1820.145c41.234-63.697,388.467-584.094,943.286-657.422
			c13.57-1.793,23.695-2.815,32.563-3.764c85.829-9.188,617.696-57.679,1051.38,309.678
			c62.08,52.585,161.984,147.436,254.628,292.098C3358.457,1592.878,3359.53,2412.107,2928.724,2861.074z"/>
		<g>
			<g>
				<g>
					<path style="fill:#EAC4F9;" d="M449.598,1077.397c-0.008,0-0.015,0-0.023,0c-1.869-0.013-3.374-1.538-3.361-3.407
						c0.031-4.531,0.114-9.065,0.248-13.604c0.055-1.867,1.682-3.366,3.482-3.283c1.869,0.055,3.338,1.613,3.283,3.482
						c-0.131,4.49-0.213,8.971-0.245,13.452C452.969,1075.897,451.457,1077.397,449.598,1077.397z"/>
					<path style="fill:#EAC4F9;" d="M452.719,1020.586c-0.116,0-0.233-0.005-0.35-0.018c-1.859-0.192-3.211-1.854-3.019-3.713
						c0.915-8.878,2.044-17.839,3.354-26.637c0.276-1.849,1.991-3.125,3.847-2.849c1.847,0.276,3.123,1.998,2.849,3.847
						c-1.296,8.697-2.413,17.557-3.318,26.333C455.904,1019.29,454.433,1020.586,452.719,1020.586z M464,951.459
						c-0.246,0-0.494-0.026-0.744-0.083c-1.824-0.408-2.971-2.219-2.561-4.042c1.948-8.69,4.121-17.458,6.459-26.059
						c0.489-1.801,2.341-2.874,4.152-2.378c1.803,0.489,2.869,2.35,2.378,4.153c-2.31,8.505-4.458,17.173-6.387,25.764
						C466.947,950.39,465.549,951.459,464,951.459z M483.287,884.13c-0.372,0-0.749-0.063-1.12-0.192
						c-1.763-0.62-2.692-2.55-2.074-4.315c1.641-4.676,3.341-9.348,5.103-14.008c1.411-3.731,2.855-7.438,4.331-11.122
						c0.692-1.737,2.664-2.584,4.399-1.884c1.735,0.694,2.579,2.664,1.884,4.399c-1.459,3.645-2.887,7.312-4.281,11
						c-1.742,4.61-3.425,9.229-5.046,13.856C485.992,883.257,484.685,884.13,483.287,884.13z M510.217,819.479
						c-0.497,0-1.001-0.109-1.479-0.34c-1.681-0.818-2.379-2.844-1.563-4.524c3.911-8.039,8.041-16.07,12.276-23.869
						c0.892-1.644,2.946-2.249,4.589-1.36c1.643,0.892,2.252,2.946,1.36,4.589c-4.187,7.712-8.272,15.652-12.137,23.602
						C512.675,818.778,511.471,819.479,510.217,819.479z M544.481,758.404c-0.625,0-1.258-0.172-1.823-0.535
						c-1.573-1.008-2.032-3.102-1.023-4.675c4.813-7.51,9.857-15.002,14.991-22.268c1.077-1.527,3.189-1.889,4.718-0.811
						c1.527,1.079,1.889,3.191,0.811,4.718c-5.076,7.183-10.063,14.589-14.822,22.013
						C546.687,757.854,545.596,758.404,544.481,758.404z M585.697,701.771c-0.757,0-1.519-0.253-2.148-0.77
						c-1.443-1.188-1.651-3.32-0.464-4.764c5.683-6.91,11.583-13.765,17.54-20.374c1.249-1.386,3.387-1.499,4.779-0.248
						c1.388,1.251,1.5,3.391,0.248,4.779c-5.888,6.534-11.722,13.312-17.339,20.143
						C587.644,701.349,586.674,701.771,585.697,701.771z M1477.813,666.543c-0.887,0-1.773-0.347-2.437-1.036
						c-6.12-6.354-12.459-12.646-18.842-18.705c-1.355-1.286-1.411-3.429-0.124-4.784c1.286-1.355,3.43-1.409,4.784-0.124
						c6.456,6.127,12.867,12.491,19.057,18.917c1.297,1.347,1.256,3.488-0.089,4.785
						C1479.505,666.229,1478.658,666.543,1477.813,666.543z M633.328,650.361c-0.889,0-1.778-0.349-2.442-1.041
						c-1.294-1.35-1.249-3.492,0.099-4.785c6.428-6.165,13.092-12.276,19.806-18.16c1.406-1.236,3.543-1.092,4.775,0.314
						c1.233,1.406,1.092,3.544-0.314,4.775c-6.639,5.818-13.228,11.859-19.581,17.955
						C635.015,650.049,634.171,650.361,633.328,650.361z M1426.324,619.038c-0.755,0-1.514-0.251-2.142-0.765
						c-6.826-5.588-13.862-11.093-20.916-16.357c-1.497-1.117-1.806-3.239-0.688-4.736c1.117-1.497,3.237-1.809,4.736-0.687
						c7.135,5.324,14.252,10.891,21.156,16.542c1.446,1.185,1.657,3.316,0.474,4.764
						C1428.276,618.615,1427.304,619.038,1426.324,619.038z M686.661,604.918c-1.026,0-2.037-0.463-2.703-1.343
						c-1.127-1.492-0.831-3.614,0.659-4.741c7.114-5.375,14.445-10.66,21.789-15.71c1.538-1.054,3.645-0.668,4.706,0.872
						c1.057,1.54,0.668,3.647-0.872,4.706c-7.261,4.992-14.508,10.217-21.541,15.531
						C688.087,604.695,687.372,604.918,686.661,604.918z M1369.594,577.929c-0.623,0-1.254-0.172-1.818-0.532
						c-7.411-4.731-15.048-9.367-22.698-13.781c-1.619-0.934-2.175-3.004-1.241-4.622c0.932-1.621,3.004-2.18,4.622-1.241
						c7.738,4.463,15.463,9.154,22.959,13.94c1.575,1.006,2.037,3.098,1.031,4.673
						C1371.804,577.377,1370.71,577.929,1369.594,577.929z M744.932,566.03c-1.162,0-2.294-0.598-2.923-1.672
						c-0.945-1.613-0.403-3.687,1.208-4.632c7.684-4.503,15.577-8.897,23.463-13.057c1.656-0.876,3.701-0.236,4.572,1.413
						c0.872,1.652,0.24,3.7-1.413,4.572c-7.796,4.115-15.602,8.459-23.198,12.912C746.102,565.881,745.514,566.03,744.932,566.03z
						 M1308.421,543.771c-0.496,0-0.996-0.107-1.472-0.337c-7.925-3.835-16.053-7.548-24.16-11.036
						c-1.717-0.739-2.508-2.73-1.77-4.447c0.737-1.717,2.727-2.513,4.447-1.77c8.196,3.528,16.417,7.282,24.431,11.159
						c1.682,0.815,2.386,2.839,1.573,4.521C1310.885,543.068,1309.677,543.771,1308.421,543.771z M807.324,534.198
						c-1.302,0-2.543-0.757-3.1-2.026c-0.752-1.712,0.026-3.708,1.738-4.458c8.145-3.576,16.493-7.019,24.813-10.238
						c1.743-0.673,3.703,0.192,4.377,1.935c0.674,1.743-0.192,3.703-1.935,4.377c-8.227,3.182-16.483,6.588-24.535,10.123
						C808.239,534.106,807.778,534.198,807.324,534.198z M1243.683,516.957c-0.368,0-0.744-0.061-1.112-0.19
						c-8.322-2.897-16.82-5.646-25.257-8.171c-1.791-0.535-2.807-2.422-2.272-4.212c0.537-1.791,2.427-2.807,4.212-2.272
						c8.533,2.553,17.127,5.334,25.541,8.264c1.766,0.615,2.698,2.543,2.084,4.308
						C1246.393,516.081,1245.083,516.957,1243.683,516.957z M872.986,509.838c-1.448,0-2.788-0.939-3.234-2.396
						c-0.547-1.786,0.458-3.678,2.246-4.225c8.53-2.611,17.22-5.06,25.827-7.279c1.804-0.468,3.655,0.623,4.121,2.432
						c0.468,1.809-0.621,3.655-2.432,4.121c-8.51,2.194-17.101,4.615-25.536,7.196C873.648,509.789,873.315,509.838,872.986,509.838
						z M1176.316,497.81c-0.243,0-0.489-0.025-0.737-0.081c-8.604-1.91-17.364-3.65-26.037-5.174
						c-1.841-0.322-3.072-2.077-2.748-3.918c0.321-1.839,2.061-3.08,3.918-2.748c8.773,1.54,17.633,3.3,26.335,5.233
						c1.824,0.405,2.974,2.213,2.569,4.037C1179.265,496.738,1177.867,497.81,1176.316,497.81z M941.027,493.296
						c-1.604,0-3.029-1.145-3.326-2.778c-0.334-1.839,0.886-3.601,2.723-3.936c8.753-1.591,17.666-3.009,26.492-4.21
						c1.838-0.254,3.556,1.043,3.809,2.897c0.253,1.851-1.044,3.558-2.897,3.809c-8.726,1.188-17.539,2.589-26.191,4.164
						C941.432,493.278,941.227,493.296,941.027,493.296z M1107.166,486.675c-0.114,0-0.228-0.005-0.344-0.017
						c-8.761-0.886-17.666-1.583-26.463-2.074c-1.866-0.104-3.295-1.702-3.191-3.568c0.104-1.866,1.722-3.27,3.568-3.191
						c8.898,0.496,17.904,1.201,26.767,2.097c1.859,0.188,3.214,1.849,3.027,3.708
						C1110.353,485.374,1108.882,486.675,1107.166,486.675z M1010.524,484.829c-1.773,0-3.262-1.38-3.374-3.173
						c-0.117-1.866,1.3-3.472,3.166-3.589c8.903-0.557,17.922-0.917,26.805-1.072c1.894-0.083,3.411,1.457,3.444,3.325
						c0.031,1.869-1.456,3.411-3.325,3.444c-8.782,0.152-17.699,0.509-26.501,1.059
						C1010.666,484.827,1010.595,484.829,1010.524,484.829z"/>
					<path style="fill:#EAC4F9;" d="M1515.414,709.536c-0.996,0-1.985-0.438-2.652-1.279c-2.786-3.511-5.613-6.993-8.48-10.443
						c-1.195-1.438-0.998-3.571,0.439-4.766c1.441-1.193,3.573-0.995,4.766,0.44c2.9,3.49,5.757,7.011,8.576,10.559
						c1.161,1.464,0.917,3.594-0.547,4.756C1516.894,709.296,1516.152,709.536,1515.414,709.536z"/>
				</g>
				<g>
					<path style="fill:#EAC4F9;" d="M1641.432,1149.662c-0.13,0-0.261-0.007-0.392-0.021c-1.857-0.215-3.189-1.894-2.976-3.749
						c0.516-4.463,0.978-8.926,1.391-13.386c0.172-1.861,1.798-3.249,3.682-3.057c1.861,0.172,3.229,1.819,3.057,3.682
						c-0.416,4.51-0.886,9.022-1.405,13.535C1644.59,1148.39,1643.127,1149.662,1641.432,1149.662z"/>
					<path style="fill:#EAC4F9;" d="M1048.343,1679.429c-1.867,0-3.381-1.512-3.384-3.379c-0.003-1.869,1.51-3.386,3.379-3.389
						c9.118-0.015,18.352-0.245,27.443-0.684c1.856-0.102,3.454,1.348,3.544,3.217c0.089,1.867-1.352,3.453-3.217,3.544
						c-9.197,0.443-18.537,0.676-27.76,0.691C1048.346,1679.429,1048.345,1679.429,1048.343,1679.429z M1003.511,1677.806
						c-0.084,0-0.169-0.003-0.255-0.01c-9.202-0.682-18.502-1.59-27.638-2.697c-1.856-0.225-3.178-1.91-2.953-3.766
						c0.226-1.857,1.955-3.166,3.766-2.953c9.034,1.094,18.228,1.991,27.328,2.667c1.862,0.137,3.262,1.762,3.123,3.624
						C1006.75,1676.451,1005.266,1677.806,1003.511,1677.806z M1120.634,1674.891c-1.682,0-3.141-1.254-3.353-2.966
						c-0.231-1.856,1.086-3.546,2.941-3.776c9.031-1.122,18.16-2.472,27.136-4.01c1.864-0.307,3.592,0.924,3.908,2.764
						c0.316,1.843-0.922,3.591-2.765,3.908c-9.078,1.555-18.312,2.92-27.447,4.053
						C1120.915,1674.883,1120.775,1674.891,1120.634,1674.891z M931.729,1668.049c-0.218,0-0.44-0.02-0.663-0.065
						c-9.022-1.793-18.142-3.824-27.104-6.039c-1.814-0.448-2.923-2.282-2.474-4.096c0.448-1.814,2.285-2.921,4.096-2.474
						c8.864,2.189,17.879,4.199,26.801,5.97c1.833,0.365,3.024,2.147,2.66,3.979C934.725,1666.935,933.31,1668.049,931.729,1668.049
						z M1191.829,1661.624c-1.515,0-2.895-1.026-3.28-2.565c-0.453-1.813,0.649-3.65,2.464-4.103
						c8.829-2.204,17.732-4.648,26.465-7.262c1.78-0.531,3.677,0.481,4.212,2.272c0.535,1.79-0.481,3.677-2.272,4.212
						c-8.831,2.644-17.836,5.116-26.766,7.345C1192.377,1661.593,1192.101,1661.624,1191.829,1661.624z M861.655,1649.667
						c-0.349,0-0.704-0.055-1.054-0.17c-8.579-2.814-17.221-5.863-25.688-9.063l-0.471-0.178c-1.751-0.649-2.647-2.596-1.999-4.349
						c0.649-1.751,2.593-2.644,4.349-1.999l0.53,0.202c8.356,3.159,16.904,6.175,25.388,8.958c1.776,0.583,2.745,2.494,2.161,4.27
						C864.403,1648.762,863.078,1649.667,861.655,1649.667z M1260.918,1639.86c-1.362,0-2.644-0.828-3.161-2.176
						c-0.667-1.745,0.205-3.701,1.952-4.371c8.521-3.262,17.069-6.76,25.407-10.399c1.715-0.742,3.708,0.036,4.455,1.748
						c0.747,1.714-0.035,3.708-1.748,4.455c-8.432,3.68-17.078,7.218-25.695,10.518
						C1261.729,1639.788,1261.321,1639.86,1260.918,1639.86z M794.266,1623.022c-0.479,0-0.967-0.101-1.429-0.317
						c-8.363-3.9-16.741-8.044-24.902-12.317c-1.656-0.866-2.295-2.911-1.428-4.567c0.868-1.656,2.912-2.295,4.567-1.428
						c8.069,4.224,16.354,8.321,24.623,12.178c1.695,0.79,2.427,2.802,1.638,4.498C796.762,1622.3,795.54,1623.022,794.266,1623.022
						z M1326.894,1609.938c-1.215,0-2.389-0.654-2.996-1.803c-0.872-1.652-0.241-3.7,1.411-4.574
						c8.059-4.257,16.126-8.759,23.98-13.384c1.611-0.945,3.685-0.41,4.633,1.2c0.948,1.611,0.411,3.685-1.2,4.633
						c-7.943,4.676-16.103,9.23-24.251,13.536C1327.968,1609.813,1327.426,1609.938,1326.894,1609.938z M730.558,1588.477
						c-0.611,0-1.229-0.165-1.788-0.512c-7.834-4.886-15.648-10.015-23.225-15.247c-1.537-1.061-1.923-3.169-0.861-4.708
						c1.059-1.537,3.164-1.928,4.708-0.861c7.489,5.17,15.214,10.242,22.96,15.072c1.585,0.99,2.069,3.077,1.081,4.663
						C732.792,1587.912,731.686,1588.477,730.558,1588.477z M1388.795,1572.292c-1.073,0-2.127-0.507-2.783-1.454
						c-1.066-1.535-0.686-3.643,0.849-4.709c7.487-5.197,14.954-10.642,22.198-16.184c1.479-1.132,3.604-0.854,4.744,0.633
						c1.135,1.484,0.853,3.607-0.633,4.744c-7.325,5.603-14.878,11.111-22.45,16.365
						C1390.133,1572.097,1389.46,1572.292,1388.795,1572.292z M671.525,1546.449c-0.747,0-1.5-0.246-2.127-0.752
						c-7.176-5.803-14.305-11.846-21.189-17.963c-1.398-1.241-1.523-3.381-0.283-4.777c1.243-1.4,3.379-1.525,4.777-0.282
						c6.806,6.048,13.855,12.023,20.951,17.758c1.453,1.175,1.679,3.306,0.504,4.761
						C673.49,1546.02,672.512,1546.449,671.525,1546.449z M1445.7,1527.44c-0.932,0-1.859-0.382-2.528-1.132
						c-1.243-1.395-1.12-3.535,0.274-4.779c6.808-6.069,13.565-12.38,20.08-18.758c1.335-1.309,3.475-1.286,4.787,0.053
						c1.307,1.335,1.284,3.478-0.053,4.785c-6.59,6.449-13.424,12.833-20.31,18.973
						C1447.305,1527.157,1446.502,1527.44,1445.7,1527.44z M618.061,1497.541c-0.884,0-1.768-0.345-2.432-1.031
						c-6.426-6.643-12.767-13.509-18.844-20.406c-1.234-1.403-1.1-3.541,0.302-4.777c1.401-1.234,3.539-1.1,4.777,0.302
						c6.008,6.82,12.276,13.606,18.629,20.174c1.299,1.343,1.264,3.487-0.079,4.785
						C619.757,1497.226,618.909,1497.541,618.061,1497.541z M1496.75,1476.007c-0.793,0-1.59-0.278-2.232-0.841
						c-1.403-1.234-1.542-3.373-0.309-4.777c6.015-6.846,11.955-13.937,17.656-21.072c1.165-1.466,3.297-1.7,4.756-0.532
						c1.461,1.167,1.699,3.295,0.532,4.756c-5.765,7.218-11.773,14.389-17.858,21.316
						C1498.625,1475.617,1497.69,1476.007,1496.75,1476.007z M1541.158,1418.728c-0.656,0-1.32-0.19-1.904-0.588
						c-1.543-1.053-1.942-3.158-0.889-4.703c5.134-7.532,10.157-15.281,14.931-23.035c0.981-1.591,3.065-2.085,4.656-1.107
						c1.591,0.98,2.087,3.065,1.107,4.657c-4.828,7.841-9.909,15.68-15.103,23.299
						C1543.303,1418.211,1542.241,1418.728,1541.158,1418.728z M1578.244,1356.503c-0.522,0-1.053-0.121-1.55-0.377
						c-1.661-0.858-2.312-2.9-1.454-4.561c4.179-8.09,8.226-16.392,12.031-24.674c0.78-1.697,2.791-2.441,4.488-1.662
						c1.699,0.78,2.442,2.789,1.662,4.488c-3.849,8.375-7.942,16.77-12.167,24.955
						C1580.653,1355.835,1579.47,1356.503,1578.244,1356.503z M1607.554,1290.266c-0.393,0-0.793-0.069-1.183-0.215
						c-1.75-0.653-2.641-2.603-1.988-4.352c3.184-8.543,6.215-17.269,9.004-25.941c0.573-1.776,2.474-2.761,4.258-2.186
						c1.78,0.573,2.758,2.48,2.186,4.258c-2.822,8.769-5.886,17.595-9.107,26.232
						C1610.218,1289.423,1608.926,1290.266,1607.554,1290.266z M1628.755,1220.985c-0.263,0-0.53-0.03-0.797-0.094
						c-1.818-0.439-2.935-2.267-2.497-4.083c2.138-8.86,4.096-17.889,5.82-26.833c0.355-1.833,2.122-3.026,3.964-2.682
						c1.834,0.354,3.035,2.128,2.682,3.964c-1.743,9.045-3.723,18.177-5.886,27.138
						C1631.666,1219.944,1630.281,1220.985,1628.755,1220.985z"/>
					<path style="fill:#EAC4F9;" d="M570.834,1442.354c-1.026,0-2.037-0.463-2.703-1.343c-2.735-3.62-5.427-7.269-8.077-10.947
						c-1.094-1.515-0.75-3.63,0.767-4.723c1.519-1.092,3.632-0.749,4.723,0.767c2.621,3.635,5.283,7.244,7.988,10.822
						c1.127,1.492,0.831,3.614-0.659,4.741C572.26,1442.131,571.544,1442.354,570.834,1442.354z"/>
				</g>
				<g>
					
						<linearGradient id="SVGID_00000088847129158220161610000004480546312600799875_" gradientUnits="userSpaceOnUse" x1="516.3739" y1="-3.3892" x2="-110.5731" y2="1738.1281" gradientTransform="matrix(0.9172 0.3984 -0.3984 0.9172 1004.6616 414.035)">
						<stop  offset="0" style="stop-color:#53D8FF"/>
						<stop  offset="1" style="stop-color:#3840F7"/>
					</linearGradient>
					<path style="fill:url(#SVGID_00000088847129158220161610000004480546312600799875_);" d="M644.261,1297.878
						c1.169,2.826,4.004,4.604,7.06,4.42l87.156-5.239c23.765,33.135,52.983,62.721,87.053,87.219l-5.34,87.093
						c-0.19,3.056,1.584,5.892,4.41,7.066l96.736,40.138c2.828,1.173,6.088,0.423,8.117-1.866l57.889-65.291
						c41.406,6.818,82.985,6.612,123.227,0.033l57.846,65.405c2.028,2.291,5.286,3.045,8.114,1.877l96.785-40.02
						c2.829-1.171,4.604-4.006,4.42-7.06l-5.239-87.156c33.136-23.763,62.72-52.983,87.218-87.052l87.095,5.341
						c3.055,0.187,5.891-1.584,7.065-4.411l40.14-96.737c1.173-2.827,0.423-6.087-1.868-8.116l-65.292-57.888
						c6.82-41.406,6.613-82.986,0.034-123.227l65.406-57.846c2.291-2.027,3.045-5.286,1.876-8.114l-40.021-96.784
						c-1.168-2.829-4.005-4.603-7.059-4.42l-87.157,5.239c-23.763-33.136-52.982-62.721-87.051-87.218l5.341-87.096
						c0.187-3.054-1.584-5.892-4.41-7.065l-96.737-40.138c-2.826-1.174-6.086-0.423-8.116,1.866l-57.888,65.292
						c-41.405-6.82-82.986-6.612-123.228-0.034l-57.845-65.403c-2.026-2.293-5.287-3.047-8.115-1.877l-96.784,40.021
						c-2.828,1.169-4.602,4.003-4.42,7.059l5.239,87.156c-33.136,23.763-62.72,52.983-87.218,87.052l-87.096-5.341
						c-3.052-0.188-5.891,1.583-7.063,4.412L604.397,945.9c-1.172,2.827-0.423,6.088,1.866,8.119l65.291,57.888
						c-6.817,41.404-6.61,82.985-0.033,123.226l-65.403,57.846c-2.293,2.028-3.046,5.286-1.878,8.115L644.261,1297.878z"/>
					<path style="fill:#FFFFFF;" d="M1049.411,1171.861c-4.804,0-9.64-0.352-14.479-1.064l0,0
						c-25.916-3.811-48.799-17.488-64.429-38.51c-15.63-21.02-22.141-46.871-18.328-72.789c7.869-53.5,57.795-90.64,111.3-82.758
						c25.918,3.812,48.799,17.487,64.429,38.509c15.632,21.022,22.141,46.872,18.327,72.791
						c-3.811,25.916-17.488,48.799-38.51,64.429C1090.625,1165.182,1070.333,1171.861,1049.411,1171.861z M1049.149,985.842
						c-42.87,0-80.512,31.487-86.932,75.133c-3.415,23.235,2.419,46.408,16.432,65.254c14.014,18.846,34.526,31.107,57.76,34.524
						l0,0c23.228,3.414,46.408-2.419,65.254-16.43c18.846-14.014,31.107-34.525,34.524-57.76s-2.417-46.41-16.43-65.255
						c-14.012-18.846-34.526-31.107-57.76-34.524C1057.682,986.149,1053.386,985.842,1049.149,985.842z"/>
					<path style="fill:#FFFFFF;" d="M1051.18,1330.684c-33.475,0-66.944-6.608-98.794-19.824h-0.002
						c-16.997-7.054-33.21-15.891-48.189-26.267l5.78-8.345c14.389,9.966,29.968,18.456,46.302,25.236h-0.002
						c41.804,17.344,86.517,22.845,130.171,16.486c19.617-2.857,39.017-8.107,57.844-15.749c0.507-0.207,1.013-0.413,1.52-0.623
						c61.128-25.277,108.754-72.843,134.103-133.94c12.701-30.608,19.047-62.775,19.042-94.944
						c-0.003-32.042-6.312-64.087-18.925-94.591c-25.277-61.126-72.843-108.752-133.939-134.105
						c-126.119-52.329-271.306,7.702-323.64,133.824c-12.55,30.252-18.948,62.522-18.955,94.913
						c-0.003,12.011,0.872,24.039,2.639,35.986l-10.043,1.484c-1.839-12.438-2.751-24.96-2.748-37.465
						c0.007-33.722,6.666-67.318,19.731-98.808c54.477-131.289,205.61-193.788,336.905-139.31
						c63.601,26.391,113.119,75.968,139.431,139.602c13.132,31.754,19.698,65.112,19.703,98.467
						c0.005,33.488-6.603,66.974-19.826,98.836c-26.389,63.601-75.966,113.119-139.599,139.432
						C1117.924,1324.116,1084.549,1330.684,1051.18,1330.684z"/>
				</g>
			</g>
			
				<linearGradient id="SVGID_00000096040467679311826060000016834451457232010920_" gradientUnits="userSpaceOnUse" x1="995.085" y1="-429.5877" x2="707.7332" y2="676.2788" gradientTransform="matrix(0.9172 0.3984 -0.3984 0.9172 1004.6616 414.035)">
				<stop  offset="0" style="stop-color:#53D8FF"/>
				<stop  offset="1" style="stop-color:#3840F7"/>
			</linearGradient>
			<path style="fill:url(#SVGID_00000096040467679311826060000016834451457232010920_);" d="M1576.319,945.27l48.447-6.796
				c14.744,17.451,32.378,32.678,52.493,44.849l0.885,48.881c0.03,1.716,1.146,3.22,2.777,3.75l55.813,18.123
				c1.631,0.53,3.418-0.035,4.45-1.403l29.433-39.038c23.428,1.969,46.642,0.007,68.827-5.454l35.212,33.962
				c1.235,1.189,3.089,1.466,4.616,0.687l52.279-26.65c1.528-0.78,2.394-2.442,2.155-4.139l-6.796-48.446
				c17.451-14.744,32.678-32.378,44.847-52.494l48.883-0.884c1.714-0.031,3.22-1.147,3.75-2.776l18.122-55.813
				c0.53-1.631-0.033-3.419-1.403-4.452l-39.037-29.432c1.97-23.429,0.007-46.643-5.455-68.827l33.963-35.213
				c1.189-1.234,1.465-3.088,0.687-4.615l-26.651-52.28c-0.778-1.528-2.441-2.393-4.138-2.156l-48.446,6.797
				c-14.744-17.452-32.378-32.679-52.495-44.848l-0.884-48.883c-0.032-1.714-1.147-3.22-2.777-3.75l-55.813-18.122
				c-1.631-0.53-3.419,0.033-4.45,1.403l-29.433,39.036c-23.429-1.969-46.643-0.007-68.828,5.454l-35.211-33.96
				c-1.233-1.191-3.089-1.467-4.616-0.689l-52.279,26.65c-1.528,0.779-2.393,2.441-2.156,4.139l6.797,48.447
				c-17.452,14.743-32.678,32.378-44.848,52.494l-48.882,0.884c-1.713,0.031-3.221,1.146-3.75,2.778l-18.123,55.811
				c-0.529,1.632,0.033,3.419,1.404,4.452l39.036,29.432c-1.968,23.428-0.006,46.642,5.454,68.827l-33.96,35.212
				c-1.191,1.234-1.467,3.087-0.689,4.616l26.651,52.279C1572.958,944.642,1574.621,945.509,1576.319,945.27z"/>
			<path style="fill:#FFFFFF;" d="M1788.435,857.146c-1.276,0-2.558-0.043-3.849-0.129l0,0
				c-31.46-2.102-55.344-29.406-53.242-60.865c2.104-31.46,29.415-55.341,60.865-53.242c15.239,1.018,29.17,7.909,39.227,19.404
				c10.057,11.496,15.034,26.221,14.016,41.461C1843.436,833.942,1818.243,857.146,1788.435,857.146z M1785.264,846.887
				c25.872,1.757,48.328-17.915,50.058-43.791c0.838-12.534-3.257-24.644-11.527-34.099c-8.272-9.453-19.728-15.121-32.263-15.959
				c-12.545-0.823-24.642,3.259-34.098,11.527c-9.455,8.272-15.123,19.73-15.961,32.263
				C1739.745,822.703,1759.389,845.159,1785.264,846.887L1785.264,846.887z"/>
			<g>
				<path style="fill:#EAC4F9;" d="M1486.72,892.608c-1.461,0-2.807-0.953-3.244-2.426c-1.296-4.381-2.507-8.821-3.597-13.196
					c-0.453-1.813,0.651-3.65,2.465-4.101c1.811-0.463,3.648,0.649,4.101,2.465c1.068,4.28,2.252,8.624,3.521,12.912
					c0.531,1.791-0.492,3.675-2.285,4.205C1487.361,892.562,1487.039,892.608,1486.72,892.608z"/>
				<path style="fill:#EAC4F9;" d="M1475.584,836.662c-1.709,0-3.178-1.292-3.361-3.031c-0.94-8.936-1.509-18.038-1.689-27.05
					c-0.036-1.869,1.448-3.414,3.316-3.452c1.879,0.058,3.414,1.448,3.452,3.316c0.175,8.822,0.732,17.73,1.652,26.478
					c0.195,1.859-1.153,3.523-3.012,3.72C1475.822,836.656,1475.703,836.662,1475.584,836.662z M1476.037,766.4
					c-0.132,0-0.264-0.007-0.398-0.023c-1.857-0.218-3.186-1.899-2.968-3.754c1.048-8.948,2.492-17.949,4.29-26.753
					c0.375-1.833,2.168-3.019,3.994-2.639c1.831,0.375,3.012,2.163,2.639,3.994c-1.761,8.617-3.174,17.428-4.2,26.184
					C1479.191,765.133,1477.729,766.4,1476.037,766.4z M1491.938,697.982c-0.375,0-0.757-0.064-1.13-0.197
					c-1.763-0.625-2.683-2.558-2.059-4.319c3.012-8.495,6.426-16.951,10.147-25.13c0.773-1.702,2.783-2.454,4.481-1.679
					c1.702,0.773,2.454,2.779,1.679,4.481c-3.64,8.004-6.982,16.276-9.929,24.588
					C1494.635,697.114,1493.331,697.982,1491.938,697.982z M1522.719,634.813c-0.621,0-1.249-0.17-1.811-0.527
					c-1.578-1.003-2.044-3.095-1.043-4.671c4.82-7.586,10.035-15.068,15.498-22.237c1.133-1.489,3.258-1.778,4.742-0.641
					c1.487,1.134,1.773,3.257,0.641,4.742c-5.347,7.018-10.451,14.34-15.167,21.764
					C1524.933,634.258,1523.838,634.813,1522.719,634.813z M1566.786,580.081c-0.871,0-1.74-0.334-2.403-1.001
					c-1.315-1.325-1.307-3.468,0.02-4.785c6.385-6.335,13.123-12.477,20.026-18.256c1.436-1.198,3.568-1.013,4.767,0.421
					c1.2,1.434,1.011,3.568-0.421,4.767c-6.758,5.658-13.355,11.671-19.606,17.872
					C1568.509,579.753,1567.647,580.081,1566.786,580.081z M1621.841,536.442c-1.129,0-2.231-0.563-2.872-1.59
					c-0.991-1.585-0.511-3.673,1.074-4.663c7.637-4.779,15.566-9.278,23.563-13.378c1.664-0.859,3.703-0.198,4.554,1.467
					c0.853,1.662,0.197,3.701-1.467,4.554c-7.826,4.014-15.586,8.419-23.061,13.094
					C1623.073,536.277,1622.454,536.442,1621.841,536.442z M1917.355,516.265c-0.464,0-0.935-0.096-1.385-0.299
					c-8.037-3.61-16.329-6.915-24.642-9.822c-1.765-0.616-2.695-2.546-2.077-4.311c0.616-1.763,2.545-2.692,4.311-2.077
					c8.497,2.969,16.969,6.347,25.181,10.037c1.705,0.765,2.467,2.768,1.7,4.473C1919.88,515.519,1918.647,516.265,1917.355,516.265
					z M1685.156,506.084c-1.4,0-2.71-0.876-3.196-2.274c-0.615-1.765,0.319-3.695,2.084-4.308c8.492-2.954,17.22-5.579,25.941-7.798
					c1.809-0.464,3.654,0.633,4.115,2.445c0.461,1.811-0.635,3.654-2.446,4.115c-8.535,2.171-17.076,4.737-25.386,7.629
					C1685.9,506.023,1685.525,506.084,1685.156,506.084z M1850.431,494.858c-0.22,0-0.443-0.022-0.666-0.066
					c-8.617-1.722-17.436-3.095-26.214-4.085c-1.857-0.21-3.194-1.884-2.984-3.741c0.21-1.857,1.892-3.201,3.741-2.984
					c8.968,1.01,17.978,2.414,26.782,4.174c1.833,0.365,3.022,2.148,2.655,3.981C1853.425,493.745,1852.01,494.858,1850.431,494.858
					z M1753.657,490.603c-1.702,0-3.168-1.282-3.359-3.014c-0.203-1.857,1.137-3.53,2.994-3.734
					c8.936-0.982,18.033-1.591,27.033-1.811c1.798-0.168,3.421,1.429,3.465,3.3c0.046,1.869-1.431,3.421-3.3,3.465
					c-8.811,0.216-17.712,0.813-26.458,1.775C1753.907,490.596,1753.781,490.603,1753.657,490.603z"/>
				<path style="fill:#EAC4F9;" d="M1967.225,544.413c-0.664,0-1.333-0.195-1.922-0.6c-3.701-2.56-7.457-5.042-11.165-7.376
					c-1.581-0.996-2.057-3.085-1.061-4.666c0.995-1.583,3.083-2.057,4.666-1.061c3.791,2.386,7.629,4.922,11.41,7.535
					c1.537,1.064,1.922,3.171,0.859,4.709C1969.355,543.904,1968.299,544.413,1967.225,544.413z"/>
			</g>
			<g>
				<path style="fill:#EAC4F9;" d="M2099.051,753.116c-1.634,0-3.07-1.185-3.338-2.847c-0.706-4.397-1.515-8.827-2.407-13.168
					c-0.377-1.831,0.803-3.619,2.634-3.995c1.839-0.377,3.62,0.803,3.995,2.634c0.912,4.435,1.74,8.963,2.461,13.456
					c0.296,1.846-0.96,3.582-2.804,3.878C2099.409,753.103,2099.228,753.116,2099.051,753.116z"/>
				<path style="fill:#EAC4F9;" d="M1788.756,1117.883c-3.313,0-6.634-0.051-9.964-0.154c-1.867-0.058-3.336-1.618-3.278-3.487
					c0.056-1.867,1.504-3.381,3.487-3.278c8.723,0.263,17.456,0.172,26.1-0.278c1.902-0.104,3.458,1.337,3.556,3.202
					c0.098,1.867-1.337,3.458-3.202,3.556C1799.923,1117.734,1794.305,1117.881,1788.756,1117.883z M1736.246,1113.534
					c-0.185,0-0.372-0.015-0.56-0.046c-8.756-1.462-17.535-3.31-26.1-5.491c-1.811-0.463-2.905-2.303-2.444-4.116
					c0.463-1.809,2.298-2.898,4.116-2.444c8.379,2.135,16.974,3.944,25.541,5.375c1.844,0.307,3.088,2.052,2.781,3.895
					C1739.304,1112.362,1737.87,1113.534,1736.246,1113.534z M1847.805,1112.296c-1.591,0-3.011-1.127-3.32-2.748
					c-0.352-1.836,0.851-3.609,2.687-3.959c8.52-1.633,17.063-3.645,25.393-5.985c1.796-0.512,3.668,0.544,4.174,2.343
					s-0.544,3.668-2.343,4.174c-8.513,2.389-17.245,4.447-25.951,6.114C1848.23,1112.276,1848.015,1112.296,1847.805,1112.296z
					 M1669.713,1094.701c-0.425,0-0.858-0.081-1.276-0.251c-8.189-3.336-16.349-7.069-24.253-11.094
					c-1.666-0.848-2.328-2.887-1.48-4.551c0.848-1.667,2.887-2.336,4.551-1.48c7.737,3.939,15.723,7.593,23.737,10.856
					c1.73,0.706,2.561,2.68,1.857,4.412C1672.314,1093.905,1671.048,1094.701,1669.713,1094.701z M1913.809,1091.884
					c-1.305,0-2.55-0.76-3.105-2.034c-0.745-1.714,0.038-3.708,1.751-4.455c7.942-3.458,15.835-7.297,23.463-11.411
					c1.646-0.882,3.697-0.271,4.585,1.373c0.886,1.644,0.273,3.698-1.373,4.586c-7.793,4.202-15.858,8.125-23.971,11.659
					C1914.718,1091.793,1914.26,1091.884,1913.809,1091.884z M1973.757,1057.501c-1.044,0-2.074-0.481-2.736-1.39
					c-1.102-1.509-0.772-3.625,0.739-4.728c7.001-5.111,13.872-10.579,20.42-16.251c1.413-1.226,3.551-1.069,4.774,0.342
					c1.224,1.413,1.071,3.549-0.342,4.774c-6.691,5.795-13.71,11.382-20.863,16.602
					C1975.146,1057.289,1974.447,1057.501,1973.757,1057.501z M2024.81,1010.893c-0.793,0-1.59-0.278-2.234-0.843
					c-1.403-1.234-1.54-3.373-0.306-4.777c5.732-6.517,11.251-13.348,16.403-20.302c1.114-1.5,3.234-1.818,4.734-0.706
					c1.502,1.114,1.818,3.232,0.706,4.734c-5.265,7.105-10.904,14.085-16.76,20.744
					C2026.683,1010.504,2025.748,1010.893,2024.81,1010.893z M2064.497,954.273c-0.549,0-1.107-0.134-1.623-0.416
					c-1.639-0.897-2.24-2.955-1.342-4.594c4.167-7.611,8.059-15.485,11.562-23.403c0.757-1.71,2.751-2.482,4.465-1.725
					c1.709,0.757,2.482,2.755,1.725,4.465c-3.581,8.092-7.556,16.137-11.816,23.915
					C2066.854,953.638,2065.694,954.273,2064.497,954.273z M2090.812,890.308c-0.309,0-0.623-0.043-0.935-0.132
					c-1.796-0.516-2.834-2.389-2.32-4.187c2.385-8.313,4.447-16.845,6.129-25.358c0.362-1.834,2.133-3.031,3.976-2.664
					c1.834,0.362,3.026,2.141,2.664,3.976c-1.719,8.698-3.825,17.416-6.261,25.913
					C2093.638,889.339,2092.283,890.308,2090.812,890.308z M2102.448,822.176c-0.069,0-0.137-0.002-0.207-0.007
					c-1.865-0.112-3.287-1.715-3.174-3.581c0.38-6.306,0.573-12.692,0.573-18.985c0-2.376-0.026-4.749-0.079-7.114
					c-0.043-1.869,1.438-3.419,3.305-3.46c1.828-0.119,3.419,1.436,3.46,3.305c0.056,2.417,0.083,4.84,0.083,7.269
					c0,6.428-0.197,12.952-0.587,19.391C2105.715,820.791,2104.225,822.176,2102.448,822.176z"/>
				<path style="fill:#EAC4F9;" d="M1608.783,1061.584c-0.668,0-1.344-0.197-1.932-0.608c-3.733-2.603-7.449-5.314-11.046-8.059
					c-1.485-1.134-1.771-3.257-0.638-4.742c1.132-1.489,3.255-1.773,4.742-0.638c3.521,2.685,7.158,5.339,10.812,7.887
					c1.534,1.069,1.91,3.179,0.841,4.711C1610.905,1061.078,1609.853,1061.584,1608.783,1061.584z"/>
			</g>
			<path style="fill:#FFFFFF;" d="M1789.614,946.05c-15.235,0-30.542-2.403-45.451-7.244l0,0
				c-9.953-3.232-19.545-7.513-28.514-12.724l5.099-8.778c8.348,4.85,17.281,8.834,26.551,11.845l0,0
				c21.848,7.094,44.612,8.56,66.597,4.536c12.682-2.325,25.105-6.479,36.936-12.434c0.21-0.106,0.418-0.211,0.628-0.319
				c32.488-16.56,56.582-44.782,67.843-79.466c4.505-13.869,6.74-28.108,6.742-42.28c0.005-21.268-5.02-42.386-14.959-61.881
				c-16.561-32.488-44.782-56.582-79.464-67.843c-71.599-23.251-148.759,16.086-172.006,87.682
				c-4.457,13.725-6.696,27.987-6.696,42.247c0,10.199,1.147,20.397,3.449,30.398l-9.895,2.277
				c-2.474-10.747-3.705-21.708-3.706-32.667c-0.002-15.323,2.404-30.646,7.191-45.392c24.978-76.918,107.878-119.17,184.799-94.202
				c37.262,12.101,67.58,37.986,85.374,72.889c10.678,20.944,16.076,43.634,16.073,66.483c-0.003,15.225-2.406,30.523-7.244,45.425
				c-12.101,37.262-37.986,67.582-72.89,85.375C1835.134,940.65,1812.453,946.05,1789.614,946.05z"/>
		</g>
		<g>
			
				<linearGradient id="SVGID_00000140694384645467504750000008033545761770131896_" gradientUnits="userSpaceOnUse" x1="-944.0341" y1="2725.6743" x2="-359.6483" y2="972.512" gradientTransform="matrix(-1 0 0 1 1155.7772 0)">
				<stop  offset="0" style="stop-color:#2B3582"/>
				<stop  offset="1" style="stop-color:#150E42"/>
			</linearGradient>
			<path style="fill:url(#SVGID_00000140694384645467504750000008033545761770131896_);" d="M590.879,2789.274
				c0,25.142,20.591,45.713,45.757,45.713h2474.342c25.166,0,45.757-20.571,45.757-45.713l20.589-1421.936
				c0-25.142-29.621-74.225-83.908-70.537l-2418.2-62.571c-31.576-0.817-62.107,11.336-84.467,33.624
				c-22.36,22.288-34.596,52.761-33.849,84.308L590.879,2789.274z"/>
			
				<linearGradient id="SVGID_00000037672800373069525720000009542673488786785177_" gradientUnits="userSpaceOnUse" x1="2093.4966" y1="1295.0284" x2="1342.485" y2="3618.915">
				<stop  offset="0" style="stop-color:#FDF53F"/>
				<stop  offset="0.6645" style="stop-color:#E57A58"/>
				<stop  offset="1" style="stop-color:#D93C65"/>
			</linearGradient>
			<path style="fill:url(#SVGID_00000037672800373069525720000009542673488786785177_);" d="M636.053,2745.418
				c0,23.808,19.48,43.289,43.289,43.289h2371.966c23.809,0,43.289-19.481,43.289-43.289l19.429-1290.847
				c-2.288-77.68-70.392-105.599-111.675-103.951l-2317.625-62.178c-22.184-0.595-43.632,7.952-59.344,23.624
				c-15.712,15.672-24.353,37.119-23.797,59.304L636.053,2745.418z"/>
			<g>
				<path style="fill:#FFFFFF;" d="M3068.966,2132.176c-0.031,0-0.063,0-0.095,0c-3.505-0.051-6.304-2.932-6.25-6.44l1.535-104.685
					c0.051-3.47,2.881-6.25,6.339-6.25c0.032,0,0.063,0,0.095,0c3.505,0.051,6.304,2.932,6.25,6.44l-1.535,104.685
					C3075.254,2129.396,3072.423,2132.176,3068.966,2132.176z"/>
				<path style="fill:#FFFFFF;" d="M3072.734,1875.642c-0.032,0-0.063,0-0.095,0c-3.505-0.051-6.304-2.938-6.25-6.44l5.886-400.948
					c-0.111-23.816-7.339-42.832-21.489-56.389c-26.412-25.304-68.344-24.012-70.111-23.93l-740.764-19.864
					c-3.502-0.089-6.266-3.008-6.171-6.51c0.092-3.502,2.783-6.484,6.513-6.168l740.324,19.864
					c4.607-0.272,49.252-1.045,78.986,27.444c16.727,16.027,25.272,38.108,25.399,65.615l-5.889,401.074
					C3079.021,1872.862,3076.191,1875.642,3072.734,1875.642z"/>
			</g>
			
				<linearGradient id="SVGID_00000142152178821420471820000002290996358550909344_" gradientUnits="userSpaceOnUse" x1="361.245" y1="2631.4697" x2="-2138.7883" y2="3239.5857" gradientTransform="matrix(-1 0 0 1 1155.7772 0)">
				<stop  offset="0" style="stop-color:#2B3582"/>
				<stop  offset="1" style="stop-color:#150E42"/>
			</linearGradient>
			<path style="fill:url(#SVGID_00000142152178821420471820000002290996358550909344_);" d="M465.214,2953.025h2788.906
				c3.109,0,5.654-2.544,5.654-5.654v-113.629c0-3.109-2.544-5.654-5.654-5.654H465.214c-3.109,0-5.654,2.544-5.654,5.654v113.629
				C459.56,2950.481,462.105,2953.025,465.214,2953.025z"/>
			<path style="opacity:0.41;fill:#FFFFFF;" d="M1807.358,2748.993H755.403c-8.836,0-15.999-7.163-15.999-15.999v-536.546
				c0-8.836,7.163-15.999,15.999-15.999h1051.955c8.836,0,15.999,7.163,15.999,15.999v536.546
				C1823.358,2741.83,1816.194,2748.993,1807.358,2748.993z"/>
			<path style="opacity:0.41;fill:#FFFFFF;" d="M2960.388,1860.307H1927.915c-8.836,0-15.999-7.163-15.999-15.999v-359.87
				c0-8.836,7.163-15.999,15.999-15.999h1032.473c8.836,0,15.999,7.163,15.999,15.999v359.87
				C2976.388,1853.144,2969.225,1860.307,2960.388,1860.307z"/>
			<path style="opacity:0.41;fill:#FFFFFF;" d="M2974.558,2301.723H1942.085c-8.836,0-15.999-7.163-15.999-16v-359.87
				c0-8.836,7.163-15.999,15.999-15.999h1032.473c8.836,0,16,7.163,16,15.999v359.87
				C2990.557,2294.56,2983.394,2301.723,2974.558,2301.723z"/>
			<path style="opacity:0.41;fill:#FFFFFF;" d="M2990.498,2740.135H1958.025c-8.836,0-15.999-7.163-15.999-16v-359.87
				c0-8.836,7.163-16,15.999-16h1032.473c8.836,0,16,7.163,16,16v359.87C3006.498,2732.971,2999.335,2740.135,2990.498,2740.135z"/>
			<path style="opacity:0.41;fill:#FFFFFF;" d="M1775.535,2093.659H804.937c-31.302,0-56.678-25.375-56.678-56.678l-23.544-557.23
				c-1.633-38.64,29.885-70.538,68.542-69.368l982.278,29.716c31.302,0,56.678,25.375,56.678,56.678v540.205
				C1832.213,2068.284,1806.838,2093.659,1775.535,2093.659z"/>
		</g>
		<g>
			
				<linearGradient id="SVGID_00000003067427462442779320000009860978944698313093_" gradientUnits="userSpaceOnUse" x1="693.2953" y1="2703.6045" x2="1194.8717" y2="2030.7593">
				<stop  offset="0" style="stop-color:#2B3582"/>
				<stop  offset="1" style="stop-color:#150E42"/>
			</linearGradient>
			<path style="fill:url(#SVGID_00000003067427462442779320000009860978944698313093_);" d="M740.688,1872.742
				c0,0,229.542,605.377,302.063,731.312c84.183,146.186,330.038,53.033,317.804-69.309
				c-12.234-122.342-299.479-628.023-299.479-628.023L740.688,1872.742z"/>
			
				<linearGradient id="SVGID_00000163064145737334883020000016619539489764880789_" gradientUnits="userSpaceOnUse" x1="1538.0045" y1="1076.4514" x2="2450.9851" y2="2702.4924">
				<stop  offset="0" style="stop-color:#CB236D"/>
				<stop  offset="1" style="stop-color:#4C246D"/>
			</linearGradient>
			<polygon style="fill:url(#SVGID_00000163064145737334883020000016619539489764880789_);" points="1050.841,1431.755 
				2477.53,937.1 2462.547,2275.716 1011.852,1952.03 			"/>
			
				<linearGradient id="SVGID_00000007424020480870518110000000868421045568952743_" gradientUnits="userSpaceOnUse" x1="3260.7727" y1="1284.5011" x2="2330.9739" y2="1671.918">
				<stop  offset="0" style="stop-color:#A737D5"/>
				<stop  offset="1" style="stop-color:#EF497A"/>
			</linearGradient>
			
				<ellipse style="fill:url(#SVGID_00000007424020480870518110000000868421045568952743_);" cx="2478.875" cy="1610.292" rx="140.167" ry="687.925"/>
			
				<linearGradient id="SVGID_00000169524694823778019430000004889609748262996372_" gradientUnits="userSpaceOnUse" x1="2323.9233" y1="1621.4615" x2="2692.8726" y2="1587.9207">
				<stop  offset="0" style="stop-color:#A737D5"/>
				<stop  offset="1" style="stop-color:#EF497A"/>
			</linearGradient>
			<path style="fill:url(#SVGID_00000169524694823778019430000004889609748262996372_);" d="M2489.513,2251.172
				c-12.668-12.885-40.267-62.588-63.927-191.117c-22.868-124.21-35.46-285.318-35.46-453.645
				c0-168.328,12.592-329.436,35.46-453.646c23.66-128.531,51.259-178.234,63.927-191.12c12.668,12.886,40.267,62.589,63.927,191.12
				c22.868,124.21,35.46,285.318,35.46,453.646c0,168.328-12.593,329.436-35.46,453.645
				C2529.78,2188.584,2502.181,2238.287,2489.513,2251.172z"/>
			<g>
				<defs>
					<path id="SVGID_00000109023026675422534440000018179173602733069953_" d="M2489.513,2251.172
						c-12.668-12.885-40.267-62.588-63.927-191.117c-22.868-124.21-35.46-285.318-35.46-453.645
						c0-168.328,12.592-329.436,35.46-453.646c23.66-128.531,51.259-178.234,63.927-191.12
						c12.668,12.886,40.267,62.589,63.927,191.12c22.868,124.21,203.312,285.318,203.312,453.646
						c0,168.328-180.444,329.436-203.312,453.645C2529.78,2188.584,2502.181,2238.287,2489.513,2251.172z"/>
				</defs>
				<clipPath id="SVGID_00000122694831540614984480000001842845764394660242_">
					<use xlink:href="#SVGID_00000109023026675422534440000018179173602733069953_"  style="overflow:visible;"/>
				</clipPath>
				
					<linearGradient id="SVGID_00000017484553548158094890000008802571148864031111_" gradientUnits="userSpaceOnUse" x1="2789.4119" y1="1583.6184" x2="1794.3633" y2="1640.712">
					<stop  offset="0" style="stop-color:#2B3582"/>
					<stop  offset="1" style="stop-color:#150E42"/>
				</linearGradient>
				
					<path style="clip-path:url(#SVGID_00000122694831540614984480000001842845764394660242_);fill:url(#SVGID_00000017484553548158094890000008802571148864031111_);" d="
					M2669.169,1601.286c0,116.886-62.966,211.641-187.591,211.641c-124.625,0-225.653-94.755-225.653-211.641
					c0-116.885,101.029-211.641,225.653-211.641C2606.202,1389.645,2669.169,1484.4,2669.169,1601.286z"/>
			</g>
			
				<linearGradient id="SVGID_00000109747135538627863480000001023214740389101185_" gradientUnits="userSpaceOnUse" x1="904.5178" y1="1937.1494" x2="867.8163" y2="1013.5135">
				<stop  offset="0" style="stop-color:#2B3582"/>
				<stop  offset="1" style="stop-color:#150E42"/>
			</linearGradient>
			<path style="fill:url(#SVGID_00000109747135538627863480000001023214740389101185_);" d="M820.738,1402.981
				c67.114-7.794,163.354-10.599,267.41,13.232c-34.283,179.084-29.109,365.743,10.54,559.022l-293.493,0
				c-46.793,0-86.693-33.989-93.991-80.209c-14.627-92.646-32.509-248.363-13.442-373.427
				C707.331,1458.834,757.672,1410.305,820.738,1402.981z"/>
			<path style="fill:#FFFFFF;" d="M996.878,1540.137H768.212c-7.761,0-14.61-4.069-18.32-10.887
				c-3.708-6.818-3.405-14.78,0.812-21.296c1.765-2.726,5.405-3.491,8.131-1.742c2.726,1.765,3.506,5.405,1.742,8.135
				c-1.837,2.84-1.969,6.308-0.354,9.283c1.617,2.97,4.605,4.747,7.989,4.747h228.667c5.015,0,9.094-4.077,9.094-9.092v-16.273
				c0-5.015-4.079-9.092-9.094-9.092H766.516c-3.248,0-5.88-2.634-5.88-5.88c0-3.246,2.631-5.88,5.88-5.88h230.362
				c11.5,0,20.853,9.356,20.853,20.852v16.273C1017.731,1530.781,1008.378,1540.137,996.878,1540.137z"/>
			<path style="fill:#FFFFFF;" d="M976.488,1641.409H747.821c-7.762,0-14.61-4.069-18.319-10.887
				c-3.708-6.818-3.405-14.78,0.811-21.296c1.765-2.722,5.407-3.491,8.131-1.742c2.726,1.765,3.507,5.405,1.742,8.135
				c-1.838,2.84-1.97,6.309-0.354,9.283c1.617,2.971,4.605,4.747,7.989,4.747h228.667c5.015,0,9.094-4.077,9.094-9.091v-16.269
				c0-5.015-4.079-9.096-9.094-9.096H746.125c-3.248,0-5.88-2.634-5.88-5.88s2.632-5.88,5.88-5.88h230.362
				c11.5,0,20.853,9.356,20.853,20.855v16.269C997.341,1632.053,987.987,1641.409,976.488,1641.409z"/>
			<path style="fill:#FFFFFF;" d="M1258.148,1395.524c-2.492,0-4.804-1.597-5.6-4.096c-0.985-3.097,0.726-6.4,3.818-7.388
				l1080.558-343.854c3.093-0.984,6.401,0.728,7.386,3.82c0.986,3.097-0.726,6.401-3.818,7.388l-1080.558,343.854
				C1259.34,1395.436,1258.74,1395.524,1258.148,1395.524z"/>
			<path style="fill:#FFFFFF;" d="M1112.027,1455.257c-2.318,0-4.514-1.378-5.446-3.656c-1.229-3.005,0.213-6.439,3.219-7.667
				l55.612-22.731c3.003-1.237,6.439,0.214,7.668,3.219c1.229,3.005-0.212,6.439-3.219,7.668l-55.612,22.731
				C1113.521,1455.119,1112.767,1455.257,1112.027,1455.257z"/>
			<path style="fill:#FFFFFF;" d="M996.878,1760.014H768.212c-7.761,0-14.608-4.069-18.318-10.887
				c-3.71-6.818-3.407-14.78,0.81-21.296c1.765-2.729,5.405-3.499,8.131-1.746c2.726,1.765,3.506,5.405,1.742,8.131
				c-1.839,2.844-1.971,6.316-0.352,9.291c1.617,2.97,4.603,4.747,7.987,4.747h228.667c5.015,0,9.094-4.081,9.094-9.095v-16.269
				c0-5.015-4.079-9.092-9.094-9.092H766.516c-3.248,0-5.88-2.634-5.88-5.88c0-3.246,2.631-5.88,5.88-5.88h230.362
				c11.5,0,20.853,9.356,20.853,20.852v16.269C1017.731,1750.658,1008.378,1760.014,996.878,1760.014z"/>
			<path style="fill:#FFFFFF;" d="M1018.288,1891.662H789.622c-7.762,0-14.608-4.069-18.318-10.887
				c-3.709-6.818-3.407-14.78,0.81-21.296c1.767-2.729,5.407-3.499,8.131-1.746c2.725,1.765,3.506,5.405,1.742,8.131
				c-1.839,2.844-1.971,6.316-0.352,9.291c1.617,2.97,4.603,4.747,7.987,4.747h228.667c5.015,0,9.094-4.077,9.094-9.092v-16.273
				c0-5.014-4.079-9.091-9.094-9.091H787.926c-3.248,0-5.88-2.634-5.88-5.88s2.632-5.88,5.88-5.88h230.362
				c11.5,0,20.853,9.356,20.853,20.851v16.273C1039.142,1882.306,1029.788,1891.662,1018.288,1891.662z"/>
			<path style="fill:#FFFFFF;" d="M1222.516,2607.428c-10.537,0-21.186-1.137-31.811-3.453
				c-46.49-10.129-84.339-40.784-103.839-84.107L904.175,2114c-1.334-2.959-0.013-6.439,2.948-7.775
				c2.961-1.336,6.442-0.008,7.775,2.951l182.691,405.868c17.955,39.885,52.808,68.113,95.619,77.438
				c42.076,9.176,84.652-1.715,116.82-29.867c1.724-1.508,3.457-3.059,5.197-4.647c2.396-2.19,6.115-2.025,8.307,0.375
				c2.19,2.396,2.023,6.117-0.375,8.307c-1.805,1.65-3.599,3.254-5.386,4.816
				C1290.899,2594.979,1257.352,2607.428,1222.516,2607.428z"/>
			<path style="fill:#FFFFFF;" d="M882.528,2057.456c-2.243,0-4.385-1.29-5.365-3.464l-20.381-45.279
				c-1.334-2.959-0.013-6.439,2.948-7.775c2.959-1.332,6.442-0.007,7.775,2.948l20.381,45.275c1.334,2.963,0.013,6.442-2.948,7.779
				C884.154,2057.291,883.333,2057.456,882.528,2057.456z"/>
			<path style="fill:#FFFFFF;" d="M2635.763,1595.192c-3.059,0-5.639-2.366-5.859-5.463c-4.063-57.272-23.914-99.97-59-126.908
				c-60.676-46.584-147.253-30.575-148.122-30.402c-3.206,0.609-6.271-1.47-6.885-4.659c-0.616-3.189,1.472-6.274,4.661-6.887
				c3.751-0.724,92.681-17.146,157.508,32.619c37.869,29.074,59.257,74.632,63.567,135.403c0.23,3.239-2.209,6.052-5.449,6.282
				C2636.042,1595.188,2635.902,1595.192,2635.763,1595.192z"/>
		</g>
		<g>
			<g>
				
					<linearGradient id="SVGID_00000079448773415021582410000000429442294262185377_" gradientUnits="userSpaceOnUse" x1="-2281.8972" y1="-3980.0396" x2="7464.5601" y2="6376.584">
					<stop  offset="0" style="stop-color:#A737D5"/>
					<stop  offset="1" style="stop-color:#EF497A"/>
				</linearGradient>
				
					<circle style="fill:url(#SVGID_00000079448773415021582410000000429442294262185377_);" cx="3042.588" cy="1677.779" r="217.778"/>
				<g>
					<path style="fill:#FFFFFF;" d="M2988.448,1605.743c0-5.613-4.55-10.163-10.163-10.163h-35.579
						c-5.613,0-10.163,4.55-10.163,10.163v162.298c0,5.613,4.55,10.163,10.163,10.163h35.579c5.613,0,10.163-4.55,10.163-10.163
						V1605.743z"/>
					<path style="fill:#FFFFFF;" d="M3114.628,1595.579h-36.731v-43.692c0-14.094-7.438-23.395-21.532-23.395h-0.903
						c-14.096,0-25.522,10.363-25.522,24.457l-12.163,43.497c-5.613,0-14.421,4.018-14.421,9.632v166.712
						c0,5.614,13.065,12.867,18.678,12.867h7.906h84.688c21.084,0,37.81-19.797,37.81-40.88v-110.686
						C3152.438,1613.008,3135.712,1595.579,3114.628,1595.579z"/>
				</g>
			</g>
			<g>
				
					<linearGradient id="SVGID_00000126319406260484388590000015853021931189633450_" gradientUnits="userSpaceOnUse" x1="-1878.8358" y1="-2866.5471" x2="8570.2256" y2="8236.666">
					<stop  offset="0" style="stop-color:#53D8FF"/>
					<stop  offset="1" style="stop-color:#3840F7"/>
				</linearGradient>
				
					<circle style="fill:url(#SVGID_00000126319406260484388590000015853021931189633450_);" cx="3035.277" cy="2355.208" r="189.414"/>
				<path style="fill:#FFFFFF;" d="M3116.503,2302.464c-20.552-20.201-52.605-14.124-74.674,4.402
					c-3.163,2.656-7.747,2.686-10.954,0.085c-22.363-18.136-54.382-23.657-74.581-3.109c-21.929,22.312-21.622,58.175,0.69,80.105
					l74.653,73.379c3.392,3.333,8.844,3.285,12.178-0.105l73.378-74.653C3139.123,2360.258,3138.814,2324.395,3116.503,2302.464z"/>
			</g>
			<g>
				
					<linearGradient id="SVGID_00000114768650061306007910000001317641297831862679_" gradientUnits="userSpaceOnUse" x1="2977.665" y1="634.217" x2="2727.2383" y2="1446.4109">
					<stop  offset="0" style="stop-color:#B37CFF"/>
					<stop  offset="1" style="stop-color:#F895E7"/>
				</linearGradient>
				
					<circle style="fill:url(#SVGID_00000114768650061306007910000001317641297831862679_);" cx="2870.926" cy="980.398" r="199.635"/>
				<g>
					<path style="fill:#FFFFFF;" d="M2927.155,915.216c0,30.89-25.041,64.238-55.931,64.238s-55.931-33.348-55.931-64.238
						s25.041-52.805,55.931-52.805S2927.155,884.326,2927.155,915.216z"/>
					<path style="fill:#FFFFFF;" d="M2801.812,1098.384h136.538c14.373,0,27.098-9.289,31.478-22.979l7.347-22.964
						c5.379-16.814-3.366-35.018-19.946-41.08c-55.566-20.317-113.023-17.71-171.882,1.875
						c-16.489,5.486-25.639,23.123-21.089,39.895l5.657,20.855C2773.821,1088.387,2786.891,1098.384,2801.812,1098.384z"/>
				</g>
			</g>
			<g>
				
					<linearGradient id="SVGID_00000084518089442571185990000007815173188553656493_" gradientUnits="userSpaceOnUse" x1="2755.6375" y1="1787.0494" x2="2352.5884" y2="2930.1238">
					<stop  offset="0" style="stop-color:#B37CFF"/>
					<stop  offset="1" style="stop-color:#F895E7"/>
				</linearGradient>
				
					<circle style="fill:url(#SVGID_00000084518089442571185990000007815173188553656493_);" cx="2660.477" cy="2056.931" r="175.666"/>
				<g>
					<path style="fill:#FFFFFF;" d="M2660.477,2167.093c-60.744,0-110.163-49.419-110.163-110.162
						c0-60.743,49.418-110.162,110.163-110.162c60.743,0,110.162,49.419,110.162,110.162
						C2770.639,2117.674,2721.221,2167.093,2660.477,2167.093z M2660.477,1965.229c-50.565,0-91.702,41.137-91.702,91.702
						c0,50.564,41.137,91.702,91.702,91.702c50.564,0,91.701-41.137,91.701-91.702
						C2752.178,2006.366,2711.041,1965.229,2660.477,1965.229z"/>
					<path style="fill-rule:evenodd;clip-rule:evenodd;fill:#FFFFFF;" d="M2625.967,2099.355v-79.198
						c0-8.463,9.212-13.708,16.49-9.389l66.735,39.599c7.129,4.23,7.129,14.549,0,18.779l-66.735,39.599
						C2635.179,2113.063,2625.967,2107.817,2625.967,2099.355z"/>
				</g>
			</g>
		</g>
		<g>
			
				<linearGradient id="SVGID_00000018204641954041491840000009728877567010727355_" gradientUnits="userSpaceOnUse" x1="14801.4443" y1="3036.7451" x2="14235.6348" y2="3652.1877" gradientTransform="matrix(1 0.0095 -0.0095 1 -13231.4072 -63.4747)">
				<stop  offset="0" style="stop-color:#2B3582"/>
				<stop  offset="1" style="stop-color:#150E42"/>
			</linearGradient>
			<path style="fill:url(#SVGID_00000018204641954041491840000009728877567010727355_);" d="M1361.899,3158.024
				c0,0-6.176,33.118-9.362,65.93c-1.246,12.823,8.542,24.06,21.409,24.72c43.713,2.238,137.223,6.673,170.804,5.494
				c5.048-0.177,8.396-5.311,6.574-10.022c-1.527-3.947-4.515-7.156-8.345-8.96l-153.837-72.489L1361.899,3158.024z"/>
			
				<linearGradient id="SVGID_00000059286528484670795560000005732011744978993321_" gradientUnits="userSpaceOnUse" x1="14617.791" y1="3082.4492" x2="14668.0498" y2="3082.4492" gradientTransform="matrix(1 0.0095 -0.0095 1 -13231.4072 -63.4747)">
				<stop  offset="0" style="stop-color:#F9B776"/>
				<stop  offset="1" style="stop-color:#F47960"/>
			</linearGradient>
			<path style="fill:url(#SVGID_00000059286528484670795560000005732011744978993321_);" d="M1357.284,3138.487l4.329,39.725
				c0,0,26.947,12.859,45.567-1.153l-10.787-44.327L1357.284,3138.487z"/>
			
				<linearGradient id="SVGID_00000137813758320751894200000012127870594109364391_" gradientUnits="userSpaceOnUse" x1="14846.0273" y1="2340.6987" x2="14364.5449" y2="2993.2861" gradientTransform="matrix(1 0.0095 -0.0095 1 -13231.4072 -63.4747)">
				<stop  offset="0" style="stop-color:#CB236D"/>
				<stop  offset="1" style="stop-color:#4C246D"/>
			</linearGradient>
			<path style="fill:url(#SVGID_00000137813758320751894200000012127870594109364391_);" d="M1367.94,2392.518
				c-2.132,10.343-15.849,516.998,36.151,744.603c0.849,3.714-1.066,7.515-4.606,8.923c-8.34,3.315-24.675,8.075-44.2,8.544
				c-6.046,0.146-11.429-3.835-13.079-9.653c-14.98-52.836-86.656-317.524-93.928-569.789c-8.127-281.883,0.092-9.594,0.092-9.594
				l8.004-174.118L1367.94,2392.518z"/>
			
				<linearGradient id="SVGID_00000095333195022107083810000013843773862781949340_" gradientUnits="userSpaceOnUse" x1="14674.5146" y1="2920.031" x2="14108.6816" y2="3535.4995" gradientTransform="matrix(1 0.0095 -0.0095 1 -13231.4072 -63.4747)">
				<stop  offset="0" style="stop-color:#2B3582"/>
				<stop  offset="1" style="stop-color:#150E42"/>
			</linearGradient>
			<path style="fill:url(#SVGID_00000095333195022107083810000013843773862781949340_);" d="M1183.99,3173.635
				c0,0-9.488,16.658-18.943,61.074c-1.708,8.021,3.835,15.766,11.988,16.647c14.427,1.558,36.639,3.596,54.448,3.643
				c8.208,0.021,14.683-7.065,13.772-15.223c-1.817-16.262-7.708-42.972-26.493-63.924L1183.99,3173.635z"/>
			
				<linearGradient id="SVGID_00000122704488544939125680000004766755095427850398_" gradientUnits="userSpaceOnUse" x1="14436.6553" y1="3079.8645" x2="14480.0479" y2="3079.8645" gradientTransform="matrix(1 0.0095 -0.0095 1 -13231.4072 -63.4747)">
				<stop  offset="0" style="stop-color:#F9B776"/>
				<stop  offset="1" style="stop-color:#F47960"/>
			</linearGradient>
			<path style="fill:url(#SVGID_00000122704488544939125680000004766755095427850398_);" d="M1176.284,3122.52l10.428,60.112
				c0,0,10.8,8.194,32.373,2.534l-4.635-64.614L1176.284,3122.52z"/>
			
				<linearGradient id="SVGID_00000043421015759729847940000000041182062359837875_" gradientUnits="userSpaceOnUse" x1="14760.2139" y1="2277.3865" x2="14278.7363" y2="2929.9668" gradientTransform="matrix(1 0.0095 -0.0095 1 -13231.4072 -63.4747)">
				<stop  offset="0" style="stop-color:#CB236D"/>
				<stop  offset="1" style="stop-color:#4C246D"/>
			</linearGradient>
			<path style="fill:url(#SVGID_00000043421015759729847940000000041182062359837875_);" d="M1153.398,2406.023
				c-46.851,266.938,3.305,660.895,20.753,738.074c1.068,4.726,4.839,8.374,9.61,9.212c8.103,1.422,21.454,2.648,34.664-1.053
				c4.551-1.274,7.779-5.337,8.009-10.059c3.033-62.233,2.29-444.474,45.009-595.127c2.165-7.635,6.903-14.267,13.415-18.803
				l80.662-56.192l7.021-92.009L1153.398,2406.023z"/>
			<g>
				
					<linearGradient id="SVGID_00000001650568640636279330000008041498245382190781_" gradientUnits="userSpaceOnUse" x1="-1992.0057" y1="1884.408" x2="-2289.5208" y2="3029.8391" gradientTransform="matrix(-1 0 0 1 -687.7962 0)">
					<stop  offset="0" style="stop-color:#53D8FF"/>
					<stop  offset="1" style="stop-color:#3840F7"/>
				</linearGradient>
				<path style="fill:url(#SVGID_00000001650568640636279330000008041498245382190781_);" d="M1440.519,1902.12
					c-132.741-3.46-279.582,32.195-279.582,32.195c-41.777,230.532-11.664,497.184-11.664,497.184
					c102.524,27.934,218.881-14.393,218.881-14.393c18.004-96.352,100.3-367.218,100.3-367.218
					c64.943-7.431,118.559-25.637,162.8-49.959c-33.195-39.229-48.547-88.889-55.14-118.221
					C1529.034,1895.849,1481.461,1903.188,1440.519,1902.12z"/>
				
					<linearGradient id="SVGID_00000161615693671212308070000006793778658957462705_" gradientUnits="userSpaceOnUse" x1="14824.6621" y1="1771.2419" x2="15081.4375" y2="1771.2419" gradientTransform="matrix(1 0.0095 -0.0095 1 -13231.4072 -63.4747)">
					<stop  offset="0" style="stop-color:#F9B776"/>
					<stop  offset="1" style="stop-color:#F47960"/>
				</linearGradient>
				<path style="fill:url(#SVGID_00000161615693671212308070000006793778658957462705_);" d="M1834.54,1710.311
					c-12.891-15.877-29.469-8.583-29.469-8.583c-20.324,82.34-123.403,148.277-228.958,179.981
					c6.593,29.331,21.945,78.992,55.14,118.221C1806.851,1903.391,1834.54,1710.311,1834.54,1710.311z"/>
			</g>
			<g>
				
					<linearGradient id="SVGID_00000052819986508204984680000017967325481338804668_" gradientUnits="userSpaceOnUse" x1="-4577.5049" y1="1727.274" x2="-4405.2061" y2="2119.2927" gradientTransform="matrix(-1 -0.0095 -0.0095 1 -2784.6816 36.7017)">
					<stop  offset="0" style="stop-color:#F9B776"/>
					<stop  offset="1" style="stop-color:#F47960"/>
				</linearGradient>
				<path style="fill:url(#SVGID_00000052819986508204984680000017967325481338804668_);" d="M1831.336,1714.285
					c1.323,4.351-14.542,10.807-23.678-7.025c-0.243-8.507-5.068-44.987,0.08-51.866c27.415-36.637,80.325-82.388,80.325-82.388
					c8.784,8.835,1.397,17.361,1.397,17.361l-25.707,26.273c5.233,9.671,11.65,17.854,14.582,29.521
					c2.221,8.834,0.721,18.239-3.807,26.217c-4.545,8.007-10.74,18.412-16.581,26.546
					C1846.891,1714.317,1831.336,1714.285,1831.336,1714.285z"/>
				
					<linearGradient id="SVGID_00000030463680663985443170000007551917719420776339_" gradientUnits="userSpaceOnUse" x1="15080.207" y1="1597.6503" x2="15152.1006" y2="1487.1127" gradientTransform="matrix(1 0.0095 -0.0095 1 -13231.4072 -63.4747)">
					<stop  offset="0" style="stop-color:#F9B776"/>
					<stop  offset="1" style="stop-color:#F47960"/>
				</linearGradient>
				<path style="fill:url(#SVGID_00000030463680663985443170000007551917719420776339_);" d="M1852.456,1633.738l-23.383,19.442
					l-7.469,19.507l20.462,23.14c0,0,7.324-38.778,12.572-47.136C1859.887,1640.333,1857.245,1636.242,1852.456,1633.738z"/>
			</g>
			
				<linearGradient id="SVGID_00000127765172862257918100000013307207065740039349_" gradientUnits="userSpaceOnUse" x1="-1761.6506" y1="1944.2404" x2="-2059.166" y2="3089.6726" gradientTransform="matrix(-1 0 0 1 -687.7962 0)">
				<stop  offset="0" style="stop-color:#53D8FF"/>
				<stop  offset="1" style="stop-color:#3840F7"/>
			</linearGradient>
			<path style="fill:url(#SVGID_00000127765172862257918100000013307207065740039349_);" d="M1210.632,2063.354l-49.695-129.038
				c0,0-124.812,83.074-146.224,189.709c23.415,1.949,65.994,8.45,107.527,29.922
				C1131.891,2103.59,1210.632,2063.354,1210.632,2063.354z"/>
			
				<linearGradient id="SVGID_00000153666046544308419670000002778783756779658921_" gradientUnits="userSpaceOnUse" x1="14262.7861" y1="2134.9226" x2="14587.7275" y2="2134.9226" gradientTransform="matrix(1 0.0095 -0.0095 1 -13231.4072 -63.4747)">
				<stop  offset="0" style="stop-color:#F9B776"/>
				<stop  offset="1" style="stop-color:#F47960"/>
			</linearGradient>
			<path style="fill:url(#SVGID_00000153666046544308419670000002778783756779658921_);" d="M1317.847,2185.352
				c0,0-139.98,77.357-186.317,9.72c-9.62-14.044-11.82-27.931-9.291-41.127c-41.533-21.471-84.112-27.972-107.527-29.922
				c-6.456,32.147-3.532,66.431,15.062,101.23c80.854,151.316,306.17-5.399,306.17-5.399L1317.847,2185.352z"/>
			
				<linearGradient id="SVGID_00000124162275732010905980000007191246695369722277_" gradientUnits="userSpaceOnUse" x1="14512.3076" y1="1787.5469" x2="14640.7842" y2="1787.5469" gradientTransform="matrix(1 0.0095 -0.0095 1 -13231.4072 -63.4747)">
				<stop  offset="0" style="stop-color:#F9B776"/>
				<stop  offset="1" style="stop-color:#F47960"/>
			</linearGradient>
			<path style="fill:url(#SVGID_00000124162275732010905980000007191246695369722277_);" d="M1307.07,1793.055l-43.409,121.761
				c-0.719,2.017,0.091,4.266,1.956,5.32c11.454,6.476,52.764,25.274,103.062-5.946c5.24-3.252,8.837-8.604,9.686-14.712
				l14.688-105.602L1307.07,1793.055z"/>
			<g>
				
					<linearGradient id="SVGID_00000003068780086193194320000017496840140215647660_" gradientUnits="userSpaceOnUse" x1="5450.5488" y1="8229.0303" x2="5402.5391" y2="8070.6826" gradientTransform="matrix(0.7523 -0.6588 0.6588 0.7523 -8098.0044 -818.1582)">
					<stop  offset="0" style="stop-color:#F9B776"/>
					<stop  offset="1" style="stop-color:#F47960"/>
				</linearGradient>
				<path style="fill:url(#SVGID_00000003068780086193194320000017496840140215647660_);" d="M1400.063,1680.805
					c0,0,45.555,87.761,39.272,122.977c-6.282,35.215-63.748,32.134-113.676,3.009l-34.18-94.619L1400.063,1680.805z"/>
				
					<linearGradient id="SVGID_00000014604707230325817140000008212820444990129836_" gradientUnits="userSpaceOnUse" x1="5407.2378" y1="7953.1333" x2="5447.3975" y2="8182.1899" gradientTransform="matrix(0.7523 -0.6588 0.6588 0.7523 -8098.0044 -818.1582)">
					<stop  offset="0" style="stop-color:#2B3582"/>
					<stop  offset="1" style="stop-color:#150E42"/>
				</linearGradient>
				<path style="fill:url(#SVGID_00000014604707230325817140000008212820444990129836_);" d="M1328.32,1760.509
					c2.049-0.884,2.825-3.374,1.621-5.253c-3.663-5.713-10.518-17.362-12.645-27.524c0,0-8.288-5.42,21.343-12.214
					c29.631-6.794,73.823-17.357,83.329-42.432c9.269-24.449-13.881-86.374-52.222-37.574c-1.458,1.857-4.281,1.871-5.703-0.015
					c-6.131-8.139-22.293-25.068-45.052-15.116c-21.297,9.313-23.834,24.83-23.618,32.666c0.064,2.304-2.014,4.076-4.274,3.623
					c-10.702-2.147-36.415-4.149-48.677,22.131c-10.099,21.646-3.787,34.015,2.011,40.089c1.879,1.968,1.016,5.172-1.593,5.943
					c-7.068,2.09-16.223,7.979-15.47,24.497c1.042,22.836,26.579,21.068,33.854,20.097c1.192-0.158,2.388,0.261,3.185,1.161
					c6.164,6.953,33.951,36.492,64.295,40.31c2.628,0.331,4.691-2.247,3.853-4.76l-12.782-38.34
					c-0.594-1.78,0.274-3.719,1.997-4.463L1328.32,1760.509z"/>
				
					<linearGradient id="SVGID_00000148654095366693301340000014313836835452992137_" gradientUnits="userSpaceOnUse" x1="5401.4722" y1="8228.291" x2="5358.2769" y2="8085.8232" gradientTransform="matrix(0.7523 -0.6588 0.6588 0.7523 -8098.0044 -818.1582)">
					<stop  offset="0" style="stop-color:#F9B776"/>
					<stop  offset="1" style="stop-color:#F47960"/>
				</linearGradient>
				<path style="fill:url(#SVGID_00000148654095366693301340000014313836835452992137_);" d="M1333.553,1765.983
					c0,0-32.812-22.975-35.407-3.915c-2.594,19.059,29.478,27.925,45.473,20.962L1333.553,1765.983z"/>
			</g>
			<g>
				<g>
					
						<linearGradient id="SVGID_00000023257054000144510850000007933481847331017871_" gradientUnits="userSpaceOnUse" x1="14386.2881" y1="2000.476" x2="14565.5898" y2="2747.5698" gradientTransform="matrix(1 0 0 1 -12963.1191 0)">
						<stop  offset="0" style="stop-color:#2B3582"/>
						<stop  offset="1" style="stop-color:#150E42"/>
					</linearGradient>
					<path style="fill:url(#SVGID_00000023257054000144510850000007933481847331017871_);" d="M1289.239,2307.606l76.252-266.291
						c0.866-3.023,3.445-5.227,6.568-5.592c13.815-1.612,53.848-6.138,100.07-10.047c55.675-4.71,120.331-8.525,158.967-5.279
						c5.493,0.461,8.812,6.271,6.369,11.212c-21.97,44.45-112.345,225.261-157.601,284.493c-1.5,1.962-3.818,3.11-6.288,3.086
						l-176.919-1.646C1291.509,2317.494,1287.822,2312.555,1289.239,2307.606z"/>
					
						<linearGradient id="SVGID_00000029746375786694002800000001209663572648071825_" gradientUnits="userSpaceOnUse" x1="14263.4248" y1="2198.1218" x2="14365.0137" y2="2198.1218" gradientTransform="matrix(1 0 0 1 -12963.1191 0)">
						<stop  offset="0" style="stop-color:#F9B776"/>
						<stop  offset="1" style="stop-color:#F47960"/>
					</linearGradient>
					<path style="fill:url(#SVGID_00000029746375786694002800000001209663572648071825_);" d="M1307.662,2243.27
						c0,0-10.622-43.678-6.338-59.174c4.285-15.496,12.587-35.42,40.257-30.992c27.672,4.427,60.313,16.084,60.313,16.084
						s-1.649,20.184-22.68,13.672l13.042,10.091c0,0-1.864,16.161-19.628,7.527l12.13,13.382c0,0-7.63,13.273-20.699,4.76
						C1350.991,2210.108,1344.726,2248.529,1307.662,2243.27z"/>
				</g>
				
					<linearGradient id="SVGID_00000017496453288001010450000008523538617453037220_" gradientUnits="userSpaceOnUse" x1="-2183.2275" y1="2080.1592" x2="-2156.4312" y2="2191.8115" gradientTransform="matrix(-1 0 0 1 -687.7962 0)">
					<stop  offset="0" style="stop-color:#53D8FF"/>
					<stop  offset="1" style="stop-color:#3840F7"/>
				</linearGradient>
				<path style="fill:url(#SVGID_00000017496453288001010450000008523538617453037220_);" d="M1467.045,2105.169
					c0,12.362,10.021,22.383,22.384,22.383c12.362,0,22.383-10.021,22.383-22.383c0-12.363-10.021-22.384-22.383-22.384
					C1477.067,2082.785,1467.045,2092.806,1467.045,2105.169z"/>
				<path style="fill:#FFFFFF;" d="M1374.12,2119.925l15.525-52.666c1.904-6.468,7.105-11.323,13.568-12.674
					c48.66-10.152,181.845-12.305,183.184-12.325l-0.088-5.95c-5.493,0.084-135.098,2.185-184.311,12.454
					c-8.613,1.796-15.533,8.24-18.063,16.812l-15.525,52.666L1374.12,2119.925z"/>
			</g>
		</g>
	</g>
</g>
</svg>
